<?xml version="1.0" encoding="utf-8"?>
<!-- Generator: Adobe Illustrator 21.1.0, SVG Export Plug-In . SVG Version: 6.00 Build 0)  -->
<svg version="1.1" id="Gruppo_1" xmlns="http://www.w3.org/2000/svg" xmlns:xlink="http://www.w3.org/1999/xlink" x="0px" y="0px"
	 viewBox="0 0 62 37" style="enable-background:new 0 0 62 37;" xml:space="preserve">
<style type="text/css">
	.st0{fill:#E31D1A;}
	.st1{fill:#FFFFFF;}
</style>
<path id="Forma_1" class="st0" d="M0,37h62V0H0V37z"/>
<g>
	<path class="st1" d="M52.6,20.2c0,0-2.3-1.3-6-3.7c-0.9-0.6-2-1.3-2.9-1.9c0.4-0.2-1.2,1-2.2,1.8c-0.4,0.3-0.3,0.3-1.1,0.8
		c-0.8,0.3-1.6,0.3-2.4-0.2c-0.6-0.4-1.2-0.9-1.9-1.3c-1.3-0.9-2.6-1.9-3.9-2.9l-0.5-0.4c-0.1-0.1-0.4-0.3-0.2-0.2
		c0,0.1,0.3,0,0.2,0c-0.7,0.4-1.4,0.8-2.1,1.2c-1.4,0.8-2.7,1.5-3.9,2.2c-1.4,0.7-2.2,1.3-3.9,2c-0.5,0.1-1,0.1-1.5-0.2
		c-0.4-0.2-0.5-0.3-0.8-0.5c-0.6-0.4-0.6-0.4-0.9-0.4c-3.4,2.1-5.9,3.7-5.8,3.6c0.1,0,1.7-1.9,5.3-5c0.8-0.5,1.9,0,2.2,0.2
		c0.2,0.1,0.6,0.3,0.8,0.3c0,0,0.2,0,0.3-0.1c0.6-0.4,2-1.4,3.1-2.2c1.2-0.8,2.5-1.6,3.8-2.5c0.7-0.4,1.3-0.8,2-1.3
		c0.6-0.4,1.7-0.6,2.5-0.2c0.6,0.3,0.6,0.4,0.8,0.5l0.5,0.4c1.3,1,2.6,2,3.8,3c0.6,0.5,1.2,1,1.8,1.4l0,0c0.1-0.1-0.6,0.8-0.3,0.4
		l0,0l0,0l0-0.1l0-0.1c0-0.1,0-0.1,0-0.1c0-0.1,0,0.1,0,0.2l0.1,0.1l0,0l0,0c0.1,0.1-0.5-0.7-0.3-0.4l0,0l0.1,0l0.2-0.1l0.5-0.3
		c0.6-0.4,1.2-0.8,1.8-1.1c0.4-0.2,0.3-0.3,1.1-0.6c0.6-0.2,1.2-0.1,1.8,0.3c1.1,0.9,1.9,1.7,2.7,2.4C50.7,18.3,52.6,20.2,52.6,20.2
		"/>
	<path class="st1" d="M45,19c0,0.7-0.6,1.3-1.3,1.3s-1.3-0.6-1.3-1.3c0-0.7,0.6-1.3,1.3-1.3S45,18.2,45,19"/>
	<path class="st1" d="M12.5,26.1c0.7,0,1.2-0.5,1.2-1.5c0-0.9-0.5-1.5-1.2-1.5c-0.6,0-1.2,0.5-1.2,1.5
		C11.3,25.4,11.7,26.1,12.5,26.1 M9.2,21.1c0-0.2-0.1-0.3-0.3-0.3H8.5V19h1.9c0.6,0,0.9,0.3,0.9,0.9v1.5c0,0.3,0,0.5,0,0.5h0
		c0,0,0.6-0.6,1.7-0.6c1.7,0,2.8,1.3,2.8,3.3c0,2-1.2,3.3-2.9,3.3c-1.1,0-1.7-0.6-1.7-0.6h0c0,0,0,0.2,0,0.4v0.1h-2V21.1z"/>
	<path class="st1" d="M20.2,26.1c0.8,0,1.4-0.6,1.4-1.5c0-0.9-0.7-1.5-1.4-1.5c-0.8,0-1.4,0.6-1.4,1.5
		C18.8,25.5,19.5,26.1,20.2,26.1 M20.2,21.3c2,0,3.5,1.3,3.5,3.3c0,1.9-1.6,3.2-3.5,3.2c-2,0-3.5-1.3-3.5-3.2
		C16.7,22.6,18.3,21.3,20.2,21.3"/>
	<path class="st1" d="M25.2,23.5c0-0.2-0.1-0.3-0.3-0.3h-0.5v-1.8h1.8c0.6,0,0.9,0.2,0.9,0.8v0.3c0,0.2,0,0.3,0,0.3h0
		c0.3-0.8,1.1-1.5,2-1.5c0.1,0,0.2,0,0.2,0v2.1c0,0-0.2,0-0.4,0c-0.5,0-1.3,0.2-1.6,1.1c-0.1,0.2-0.1,0.5-0.1,0.8v2.4h-2.1V23.5z"/>
	<path class="st1" d="M31.1,23.5c0-0.2-0.1-0.3-0.3-0.3h-0.5v-1.8h1.9c0.6,0,0.9,0.3,0.9,0.7v0.1c0,0.1,0,0.1,0,0.1h0
		c0.3-0.4,0.8-1.1,1.8-1.1c0.8,0,1.4,0.4,1.7,1.1h0c0.3-0.5,1.1-1.1,2-1.1c1.1,0,2,0.6,2,2.3v2c0,0.2,0.1,0.3,0.3,0.3h0.5v1.8h-1.9
		c-0.6,0-0.9-0.3-0.9-0.9V24c0-0.5-0.1-0.8-0.5-0.8c-0.6,0-1,0.5-1.1,1.2c0,0.2-0.1,0.4-0.1,0.7v2.6h-2.1V24c0-0.5-0.1-0.8-0.5-0.8
		c-0.6,0-1,0.5-1.1,1.2c0,0.2-0.1,0.5-0.1,0.8v2.6h-2.1V23.5z"/>
	<path class="st1" d="M42.9,23.5c0-0.2-0.1-0.3-0.3-0.3h-0.5v-1.8h1.9c0.6,0,0.9,0.3,0.9,0.9v3.3c0,0.2,0.1,0.3,0.3,0.3h0.5v1.8
		h-1.9c-0.6,0-0.9-0.3-0.9-0.9V23.5z"/>
	<path class="st1" d="M50,26.1c0.8,0,1.4-0.6,1.4-1.5c0-0.9-0.7-1.5-1.4-1.5c-0.8,0-1.4,0.6-1.4,1.5C48.6,25.5,49.2,26.1,50,26.1
		 M50,21.3c2,0,3.5,1.3,3.5,3.3c0,1.9-1.6,3.2-3.5,3.2c-2,0-3.5-1.3-3.5-3.2C46.5,22.6,48,21.3,50,21.3"/>
</g>
</svg>
