<?xml version="1.0" encoding="utf-8"?>
<!-- Generator: Adobe Illustrator 21.1.0, SVG Export Plug-In . SVG Version: 6.00 Build 0)  -->
<svg version="1.1" id="Livello_1" xmlns="http://www.w3.org/2000/svg" xmlns:xlink="http://www.w3.org/1999/xlink" x="0px" y="0px"
	 viewBox="0 0 46 118.3" style="enable-background:new 0 0 46 118.3;" xml:space="preserve">
<style type="text/css">
	.st0{fill:#FBBA00;}
	.st1{fill:#FFFFFF;}
	.st2{opacity:0.8;fill:#FFFFFF;}
</style>
<path class="st0" d="M0,0v118.3h38.6c0,0,7.4,0,7.4-7.4V7.4c0,0,0-7.4-7.4-7.4H0z"/>
<g>
	<path class="st1" d="M23.3,15.8c0.2,0.3,0.6,0.5,1,0.5l4.3-0.6c-0.7-2-1.9-3.7-3.5-4.9l-1.9,3.8C23,15,23.1,15.5,23.3,15.8"/>
	<path class="st1" d="M20.8,13.9c0.4,0.1,0.8,0.1,1.2-0.2l3-2.9c-1.7-1.2-3.6-1.8-5.7-1.9L20,13C20,13.5,20.4,13.8,20.8,13.9"/>
	<path class="st1" d="M24.3,18.8c0,0.4,0.2,0.8,0.5,1l3.9,2c0.6-1.9,0.6-4,0-6l-3.8,2C24.5,18,24.3,18.4,24.3,18.8"/>
	<path class="st1" d="M17.6,13.9c0.4-0.1,0.7-0.4,0.8-0.9l0.7-4.2c-1,0-2,0.2-3,0.5c-1,0.3-1.9,0.8-2.7,1.4l3,2.9
		C16.7,14,17.2,14,17.6,13.9"/>
	<path class="st1" d="M23.3,21.8c-0.2,0.3-0.3,0.7-0.1,1.1l1.9,4c1.7-1.2,2.9-2.9,3.5-4.9l-4.4-0.6C23.9,21.3,23.5,21.5,23.3,21.8"
		/>
	<path class="st1" d="M14,18.8c0-0.4-0.2-0.8-0.6-1l-3.8-2c-0.6,1.9-0.6,4,0,6l3.8-2C13.9,19.6,14,19.2,14,18.8"/>
	<path class="st1" d="M15,15.8c0.2-0.3,0.3-0.8,0.1-1.2l-1.9-3.8c-1.7,1.2-2.9,2.9-3.5,4.9l4.2,0.6C14.3,16.3,14.7,16.1,15,15.8"/>
	<path class="st1" d="M25,26.9l-3.2-3.1c-0.3-0.3-0.7-0.3-1-0.2c-0.4,0.1-0.7,0.4-0.7,0.8l-0.8,4.4c1,0,2-0.2,3-0.5
		C23.2,28,24.2,27.5,25,26.9"/>
	<path class="st1" d="M17.6,23.6c-0.4-0.1-0.8-0.1-1.1,0.2l-3.2,3.1c1.7,1.2,3.6,1.8,5.7,1.9l-0.8-4.4C18.3,24.1,18,23.8,17.6,23.6"
		/>
	<path class="st1" d="M15,21.8c-0.2-0.3-0.6-0.5-1-0.5L9.7,22c0.7,2,1.9,3.7,3.5,4.9l1.9-3.9C15.4,22.6,15.3,22.1,15,21.8"/>
	<polygon class="st1" points="28.4,109.5 10.1,109.5 10.1,105.5 24.9,105.5 24.9,97.4 28.4,97.4 	"/>
	<rect x="10.1" y="91.7" class="st1" width="18.3" height="4"/>
	<path class="st1" d="M28.6,79.7c0,2.3-1.4,3.6-2.6,4.1l-15.9,6.5V86l0.2-0.1c2.9-1.2,7.9-3.2,11.6-4.7l0.7-0.3l-12.5-4.6v-4.2
		l18.6,7.4V79.7z"/>
	<rect x="10.1" y="66.7" class="st1" width="18.3" height="4"/>
	<path class="st1" d="M28.7,55.1c0,6-3.8,10.1-9.4,10.1c-5.9,0-9.5-3.7-9.5-10c0-1.7,0.4-3.5,1.2-5.6l0.1-0.4l3.4,1.4L14.4,51
		c-0.7,1.6-1,3.1-1,4.5c0,3.3,2.1,5.4,5.6,5.4c3.8,0,5.9-2.1,5.9-5.7c0-0.8-0.1-1.6-0.2-2.2l-0.1-0.2l-0.3,0c-0.1,0-0.2,0-0.4,0
		l-2.2,0c-0.7,0-1.4-0.3-1.9-0.8c-0.5-0.5-0.8-1.2-0.8-1.9v-1.3h8.2l0.1,0.2C28.2,51,28.7,53,28.7,55.1"/>
	<path class="st1" d="M28.6,32.8c0,1.7-0.8,3-2.4,3.9L15.4,43h13v4l-18.3,0v-5.4l11.7-7H10.1v-4l18,0l0.1,0.2
		C28.4,31.5,28.6,32.2,28.6,32.8"/>
	<path class="st2" d="M37.9,83.7v1.1h-4v0.7H33v-0.7h-0.4c-1,0-1.5-0.6-1.5-1.6c0,0,0,0,0,0c0-0.1,0-0.3,0-0.5h0.9
		c0,0.1,0,0.2,0,0.3c0,0,0,0,0,0.1c0,0.5,0.3,0.7,0.6,0.7H33v-1h0.9v1H37.9"/>
	<path class="st2" d="M33.8,79.9c0,0.7,0.4,1.4,1.3,1.4v-2.8C34.2,78.5,33.8,79.2,33.8,79.9 M38,79.9c0,1.7-1.3,2.6-2.5,2.5
		c-1.3,0-2.5-0.9-2.5-2.5c0,0,0,0,0,0c0-1.7,1.4-2.7,3-2.4v3.9c0.6-0.1,1.2-0.6,1.2-1.5c0-0.4-0.1-1-0.6-1.4l0.5-0.8
		C37.6,78.3,38,79.1,38,79.9"/>
	<path class="st2" d="M33.8,74.1c0,0.7,0.4,1.4,1.3,1.4v-2.8C34.2,72.7,33.8,73.4,33.8,74.1 M38,74.1c0,1.7-1.3,2.6-2.5,2.5
		c-1.3,0-2.5-0.9-2.5-2.5c0,0,0,0,0,0c0-1.7,1.4-2.7,3-2.4v3.9c0.6-0.1,1.2-0.6,1.2-1.5c0-0.4-0.1-1-0.6-1.4l0.5-0.8
		C37.6,72.5,38,73.3,38,74.1"/>
	<path class="st2" d="M37.9,69.3c0,1-0.5,1.5-1.5,1.5h-5.2v-1.1l5.2,0c0.4,0,0.6-0.1,0.6-0.6c0,0,0-0.1,0-0.2h0.9
		C37.9,69,37.9,69.2,37.9,69.3"/>
	<path class="st2" d="M37.9,64.2c0,1-0.5,1.6-1.5,1.6h-2.5v0.7H33v-0.7h-1.2l-0.1-1H33v-0.9h0.9v0.9h2.5c0.3,0,0.7-0.2,0.7-0.7
		c0-0.1,0-0.2,0-0.3h0.9C37.9,63.9,37.9,64,37.9,64.2"/>
	<path class="st2" d="M37.9,58.4v1.1l-2.8,0c-0.8,0-1.2,0.6-1.2,1.3c0,0,0,0,0,0c0,0.3,0.1,0.7,0.3,1l3.7,0v1.1l-6.7,0v-1.1h2.2
		C33.1,61.5,33,61,33,60.6c0-1.3,0.8-2.2,2.1-2.2H37.9"/>
	<path class="st2" d="M33.8,55c0,0.7,0.4,1.4,1.3,1.4v-2.8C34.2,53.7,33.8,54.4,33.8,55 M38,55c0,1.7-1.3,2.6-2.5,2.5
		c-1.3,0-2.5-0.9-2.5-2.5c0,0,0,0,0,0c0-1.7,1.4-2.7,3-2.4v3.9c0.6-0.1,1.2-0.6,1.2-1.5c0-0.4-0.1-1-0.6-1.4l0.5-0.8
		C37.6,53.4,38,54.2,38,55"/>
	<path class="st2" d="M35.5,47.3c0,0.6,0.2,1.2,0.8,1.2c0.5,0,0.8-0.3,0.8-1.2c0-0.4-0.2-0.9-0.5-1.1h-0.8
		C35.6,46.5,35.5,46.8,35.5,47.3C35.5,47.2,35.5,47.3,35.5,47.3 M38,47.6c0,1.3-0.9,1.9-1.7,1.9c-0.9,0-1.6-0.7-1.6-2.1
		c0-0.1,0-0.1,0-0.2c0-0.3,0.1-0.8,0.3-1h-0.2c-0.8,0-1,0.6-1,1.2c0,0,0,0,0,0c0,0.5,0.2,1,0.4,1.4l-0.7,0.4
		c-0.4-0.5-0.7-1.2-0.7-1.9c0-1.1,0.6-2.1,1.9-2.1h3.2V46l-0.6,0.2C37.9,46.6,38,47,38,47.6"/>
	<path class="st2" d="M37.9,42.6c0,1-0.5,1.5-1.5,1.5h-5.2V43l5.2,0c0.4,0,0.6-0.1,0.6-0.6c0,0,0-0.1,0-0.2h0.9
		C37.9,42.4,37.9,42.5,37.9,42.6"/>
	<path class="st2" d="M33.9,39.6c0,0.3,0.1,0.7,0.4,0.9h2.2c0.4-0.2,0.5-0.7,0.5-1c0-0.9-0.7-1.4-1.6-1.4
		C34.3,38,33.9,38.8,33.9,39.6 M39.8,40.5v1H33v-0.9l0.5-0.2c-0.4-0.3-0.5-0.7-0.5-1.2c0-1.1,0.8-2.2,2.5-2.2c1.3,0,2.5,1,2.5,2.3
		c0,0,0,0,0,0c0,0.4-0.1,0.8-0.5,1.1H39.8"/>
	<path class="st2" d="M38,34.6c0,0.7-0.3,1.3-0.9,1.8l-0.6-0.7c0.3-0.3,0.6-0.7,0.6-1.1c0,0,0,0,0-0.1c0-0.4-0.1-0.8-0.5-0.8
		c-0.5,0-0.6,0.5-0.7,0.8c-0.1,0.8-0.5,1.6-1.5,1.6c-1,0-1.5-0.9-1.5-1.8c0-0.5,0.2-1.1,0.6-1.6l0.6,0.6c-0.2,0.3-0.4,0.6-0.4,0.9
		c0,0.3,0.1,0.8,0.6,0.8c0.4,0,0.5-0.5,0.5-0.8c0.2-0.8,0.6-1.6,1.5-1.6C37.6,32.8,38,33.8,38,34.6"/>
</g>
</svg>
