<?xml version="1.0" encoding="utf-8"?>
<!-- Generator: Adobe Illustrator 21.0.0, SVG Export Plug-In . SVG Version: 6.00 Build 0)  -->
<svg version="1.1" id="Livello_1" xmlns="http://www.w3.org/2000/svg" xmlns:xlink="http://www.w3.org/1999/xlink" x="0px" y="0px"
	 viewBox="0 0 106 20.9" style="enable-background:new 0 0 106 20.9;" xml:space="preserve">
<style type="text/css">
	.st0{fill:#FFFFFF;}
</style>
<g>
	<g>
		<path class="st0" d="M57.9,1.6c-4.2,0-6.2,2.2-6.2,6.7c0,4.4,2.1,6.7,6.2,6.7h6.2v-2.6h-6.2c-2.1,0-3.3-0.9-3.5-2.8h9.8V8.3
			C64.1,3.8,62.1,1.6,57.9,1.6z M54.4,7c0.3-1.9,1.5-2.8,3.5-2.8c2.1,0,3.3,0.9,3.5,2.8H54.4z"/>
		<path class="st0" d="M71.8,1.6c-4.1,0-6.2,2.2-6.2,6.7v12.3h2.6V15h3.6C76,15,78,12.8,78,8.3C78.1,3.9,76,1.6,71.8,1.6z
			 M74.8,11.3c-0.6,0.7-1.6,1.1-2.9,1.1h-3.6V8.3c0-1.4,0.2-2.3,0.7-3c0.6-0.8,1.5-1.1,2.9-1.1s2.4,0.4,2.9,1.1
			c0.5,0.6,0.7,1.6,0.7,3C75.4,9.6,75.2,10.6,74.8,11.3z"/>
		<path class="st0" d="M85.7,1.6c-4.1,0-6.2,2.2-6.2,6.7v12.3h2.6V15h3.6c4.2,0,6.2-2.2,6.2-6.7C92,3.9,89.9,1.6,85.7,1.6z
			 M88.7,11.3c-0.6,0.7-1.6,1.1-2.9,1.1h-3.6V8.3c0-1.4,0.2-2.3,0.7-3c0.6-0.8,1.5-1.1,2.9-1.1s2.4,0.4,2.9,1.1
			c0.5,0.6,0.7,1.6,0.7,3C89.4,9.6,89.1,10.6,88.7,11.3z"/>
		<path class="st0" d="M47.6,8.3c0,1.4-0.2,2.3-0.7,2.9c-0.6,0.7-1.5,1.1-2.9,1.1s-2.4-0.4-2.9-1.1c-0.5-0.6-0.7-1.6-0.7-2.9V1.7
			h-2.6v6.6c0,4.4,2.1,6.7,6.2,6.7c4.2,0,6.2-2.2,6.2-6.7V1.7h-2.6V8.3z"/>
		<path class="st0" d="M103.3,1.7v6.6c0,1.4-0.2,2.3-0.7,2.9c-0.6,0.7-1.5,1.1-2.9,1.1s-2.4-0.4-2.9-1.1c-0.5-0.6-0.7-1.6-0.7-2.9
			V1.7h-2.6v6.6c0,4,1.7,6.2,5,6.6c-0.1,0.9-0.3,1.6-0.6,2.1c-0.6,0.7-1.5,1.1-2.9,1.1v2.6c3.9,0,6-1.9,6.2-5.8
			c3.2-0.5,4.8-2.7,4.8-6.6V1.7H103.3z"/>
	</g>
	<path class="st0" d="M18.1,15.6c0.1-0.2,0.2-0.4,0.2-0.6v-0.1"/>
	<path class="st0" d="M15.5,16c0.3,0.4,0.7,0.7,1.2,0.7s0.9-0.3,1.2-0.7c0,0,0.8-1,0.3-1.5c-0.3-0.3-0.8-0.5-1.4-0.5
		s-1.2,0.2-1.4,0.5C15.2,14.5,14.7,15,15.5,16z"/>
	<path class="st0" d="M26.2,0.2c-3.9,0-7,3.1-7,7c0,0.5,0,0.9,0.1,1.3c0.3-2.5,2.4-4.4,5-4.4c2.8,0,5,2.2,5,5c0,2.5-1.8,4.5-4.1,4.9
		c0.3,0,0.7,0.1,1,0.1c3.9,0,7-3.1,7-7C33.2,3.3,30.1,0.2,26.2,0.2z"/>
	<path class="st0" d="M8.1,14.1C5.8,13.7,4,11.6,4,9.2c0-2.8,2.2-5,5-5c2.5,0,4.6,1.9,5,4.4c0-0.5,0-1,0-1.4c0-3.9-3.1-7-7-7
		s-7,3.1-7,7s3.1,7,7,7C7.4,14.1,7.7,14.1,8.1,14.1z"/>
</g>
</svg>
