<svg xmlns="http://www.w3.org/2000/svg" viewBox="0 0 170.67 155.78"><defs><style>.cls-1{fill:#f7b031;}</style></defs><g id="Livello_2" data-name="Livello 2"><g id="Livello_1-2" data-name="Livello 1"><path class="cls-1" d="M170.67,155.78H0V0H170.67ZM3,152.78H167.67V3H3Z"/><path class="cls-1" d="M17.72,17H41.1c11.35,0,19.71,2.18,26.7,8C76.63,32.49,82,44.52,82,57.58c0,15.13-6.3,27.85-16.84,35.07-8.48,5.84-17.08,5.84-27.39,5.84H17.72Zm4,3.78V94.71H44.08c20.4,0,33.81-14.67,33.81-37.47,0-21.43-12.61-36.44-35.53-36.44Z"/><path class="cls-1" d="M105.34,138.76h-4V57.29h22.73c7.68,0,13.18.45,17.54,3a23.18,23.18,0,0,1,11.34,20.28c0,14.21-9.62,23.83-29,23.83H105.34Zm18.72-38.27c5.85,0,10.78,0,15.59-2.87,5.84-3.43,9-9.51,9-16.84,0-6.88-2.86-12.84-7.68-16.16-4.24-3-10-3.32-17.87-3.32H105.34v39.19Z"/></g></g></svg>